<?xml version="1.0" encoding="UTF-8"?>
<svg id="katman_1" data-name="katman 1" xmlns="http://www.w3.org/2000/svg" viewBox="0 0 32 32">
  <defs>
    <style>
      .cls-1 {
        fill: #fff;
      }
    </style>
  </defs>
  <path class="cls-1" d="m28.85,14.18c-.04,1.51-.78,3.12-2.25,4.4-.55.48-.82,1.12-1.02,1.79-.53,1.84-.27,3.65.24,5.45.06.21.14.42.2.63.12.4-.01.68-.33.75-.3.07-.54-.12-.61-.51-.21-1.04-.41-2.09-.63-3.14-.19-.9-.38-1.79-.67-2.66-.09-.28-.24-.39-.54-.35-1.7.25-3.14-.36-4.44-1.39-.69-.55-1.25-1.2-1.73-1.94-.2-.31-.18-.56.05-.75.25-.21.53-.15.76.18.33.47.69.9,1.13,1.26,3.17,2.59,8.02.83,8.73-3.2.37-2.11-.31-3.9-1.99-5.25-1.08-.86-1.81-1.9-2.04-3.28-.05-.28-.05-.55-.04-.83.03-.34.21-.54.5-.55.31-.01.51.2.5.58-.01.97.3,1.82.91,2.57.23.28.51.5.79.73,1.6,1.24,2.48,3.07,2.48,5.51Z"/>
  <path class="cls-1" d="m9.88,19.12c1.46-.06,2.95-.75,4.05-2.22.07-.09.13-.19.2-.28.23-.29.48-.35.71-.18.25.18.29.44.11.74-.35.57-.77,1.08-1.25,1.53-1.02.97-2.19,1.67-3.62,1.86-.39.05-.79.05-1.18,0-.52-.07-.55-.06-.72.45-.45,1.4-.73,2.85-1.04,4.29-.09.4-.17.79-.25,1.19-.13.57-.34.78-.68.69-.35-.09-.43-.38-.24-.93.29-.82.51-1.66.63-2.53.21-1.49.17-2.96-.53-4.35-.14-.29-.33-.52-.58-.72-3.16-2.6-3.12-7.46.11-9.97,1.1-.86,1.74-1.92,1.73-3.35,0-.35.2-.56.49-.55.28,0,.49.23.5.56.04,1.57-.56,2.87-1.77,3.83-1.17.93-2.01,2.03-2.3,3.52-.65,3.32,1.91,6.43,5.63,6.42Z"/>
  <path class="cls-1" d="m26,15.42c0,.4-.32.73-.72.73-.39.01-.75-.34-.74-.72,0-.38.36-.74.73-.74.38,0,.72.34.73.73Z"/>
  <path class="cls-1" d="m7.47,15.43c0,.39-.35.73-.74.72-.4-.01-.72-.33-.72-.73s.35-.73.73-.73c.38,0,.73.36.73.74Z"/>
</svg>