<?xml version="1.0" encoding="utf-8"?>
<!-- Generator: Adobe Illustrator 27.3.1, SVG Export Plug-In . SVG Version: 6.00 Build 0)  -->
<svg version="1.1" id="katman_1" xmlns="http://www.w3.org/2000/svg" xmlns:xlink="http://www.w3.org/1999/xlink" x="0px" y="0px"
	 viewBox="0 0 32 32" style="enable-background:new 0 0 32 32;" xml:space="preserve">
<style type="text/css">
	.st0{fill:#FFFFFF;}
</style>
<g>
	<path class="st0" d="M28.85,14.18c-0.04,1.51-0.78,3.12-2.25,4.4c-0.55,0.48-0.82,1.12-1.02,1.79c-0.53,1.84-0.27,3.65,0.24,5.45
		c0.06,0.21,0.14,0.42,0.2,0.63c0.12,0.4-0.01,0.68-0.33,0.75c-0.3,0.07-0.54-0.12-0.61-0.51c-0.21-1.04-0.41-2.09-0.63-3.14
		c-0.19-0.9-0.38-1.79-0.67-2.66c-0.09-0.28-0.24-0.39-0.54-0.35c-1.7,0.25-3.14-0.36-4.44-1.39c-0.69-0.55-1.25-1.2-1.73-1.94
		c-0.2-0.31-0.18-0.56,0.05-0.75c0.25-0.21,0.53-0.15,0.76,0.18c0.33,0.47,0.69,0.9,1.13,1.26c3.17,2.59,8.02,0.83,8.73-3.2
		c0.37-2.11-0.31-3.9-1.99-5.25c-1.08-0.86-1.81-1.9-2.04-3.28c-0.05-0.28-0.05-0.55-0.04-0.83C23.7,5,23.88,4.8,24.17,4.79
		c0.31-0.01,0.51,0.2,0.5,0.58c-0.01,0.97,0.3,1.82,0.91,2.57c0.23,0.28,0.51,0.5,0.79,0.73C27.97,9.91,28.85,11.74,28.85,14.18z"/>
	<path class="st0" d="M9.88,19.12c1.46-0.06,2.95-0.75,4.05-2.22c0.07-0.09,0.13-0.19,0.2-0.28c0.23-0.29,0.48-0.35,0.71-0.18
		c0.25,0.18,0.29,0.44,0.11,0.74c-0.35,0.57-0.77,1.08-1.25,1.53c-1.02,0.97-2.19,1.67-3.62,1.86c-0.39,0.05-0.79,0.05-1.18,0
		c-0.52-0.07-0.55-0.06-0.72,0.45c-0.45,1.4-0.73,2.85-1.04,4.29c-0.09,0.4-0.17,0.79-0.25,1.19c-0.13,0.57-0.34,0.78-0.68,0.69
		c-0.35-0.09-0.43-0.38-0.24-0.93c0.29-0.82,0.51-1.66,0.63-2.53c0.21-1.49,0.17-2.96-0.53-4.35c-0.14-0.29-0.33-0.52-0.58-0.72
		c-3.16-2.6-3.12-7.46,0.11-9.97C6.7,7.83,7.34,6.77,7.33,5.34c0-0.35,0.2-0.56,0.49-0.55c0.28,0,0.49,0.23,0.5,0.56
		c0.04,1.57-0.56,2.87-1.77,3.83c-1.17,0.93-2.01,2.03-2.3,3.52C3.6,16.02,6.16,19.13,9.88,19.12z"/>
	<path class="st0" d="M26,15.42c0,0.4-0.32,0.73-0.72,0.73c-0.39,0.01-0.75-0.34-0.74-0.72c0-0.38,0.36-0.74,0.73-0.74
		C25.65,14.68,25.99,15.03,26,15.42z"/>
	<path class="st0" d="M7.47,15.43c0,0.39-0.35,0.73-0.74,0.72c-0.4-0.01-0.72-0.33-0.72-0.73c0-0.39,0.35-0.73,0.73-0.73
		C7.12,14.69,7.47,15.05,7.47,15.43z"/>
</g>
</svg>
